<?xml version="1.0" encoding="UTF-8"?> <svg xmlns="http://www.w3.org/2000/svg" xmlns:xlink="http://www.w3.org/1999/xlink" version="1.1" id="Layer_1" x="0px" y="0px" viewBox="0 0 800 800" style="enable-background:new 0 0 800 800;" xml:space="preserve"> <style type="text/css"> .st0{fill:#53BCB1;} </style> <g> <path class="st0" d="M329.1,269.7c-7.2-22.8-29.9-37-53.6-33.4c-23.6,3.6-41.1,24-41.1,47.9c0,23.9,17.5,44.3,41.1,47.9 c23.6,3.6,46.4-10.6,53.6-33.4h41.6l32.5,32.5c2.7,2.7,6.4,4.3,10.2,4.4h41.2c4.1,0.5,8.2-0.9,11.3-3.6c3.1-2.8,4.8-6.7,4.8-10.9 c0-4.1-1.8-8.1-4.8-10.8c-3.1-2.7-7.2-4.1-11.3-3.6h-35.2l-32.5-32.7l0,0c-2.7-2.7-6.4-4.2-10.2-4.2L329.1,269.7z M283.2,303.2 c-7.9,0.1-15-4.6-18.1-11.9c-3.1-7.3-1.4-15.6,4.1-21.2c5.6-5.6,13.9-7.3,21.2-4.3c7.3,3,12,10.1,12,18c0.1,5.2-1.8,10.2-5.5,14 c-3.6,3.7-8.6,5.8-13.8,5.8L283.2,303.2z"></path> <path class="st0" d="M107.2,399.4c0.2,23.7,17.6,43.7,41,47.3c23.4,3.6,46-10.3,53.2-32.9h182.4c8,0,14.4-6.4,14.4-14.4 s-6.4-14.4-14.4-14.4H201.4c-7.3-22.5-29.8-36.4-53.2-32.9C124.8,355.7,107.4,375.7,107.2,399.4L107.2,399.4z M155.5,380.1 c7.8,0,14.8,4.7,17.8,11.9c3,7.2,1.3,15.5-4.2,21c-5.5,5.5-13.8,7.2-21,4.2c-7.2-3-11.9-10-11.9-17.8 C136.2,388.7,144.8,380.1,155.5,380.1z"></path> <path class="st0" d="M684.2,457.7c5.7-2.1,9.6-7.5,9.6-13.6v-89.5c0-6.1-3.8-11.5-9.6-13.6l-36.5-12.9l-22-53.3l16.8-34.9 c2.8-5.6,1.7-12.4-2.8-16.8l-63.2-63.2c-4.4-4.5-11.2-5.7-16.8-2.8l-35,16.8l-53.1-22l-12.9-36.5c-2.1-5.7-7.5-9.6-13.6-9.6h-89.3 c-6.1,0-11.5,3.8-13.6,9.6l-13.7,38.7l-54.6,0c-7.1-22.8-29.9-37-53.6-33.4c-23.6,3.6-41.1,24-41.1,47.9 c0,23.9,17.4,44.3,41.1,47.9c23.7,3.6,46.4-10.6,53.6-33.4h64.9c6.1,0,11.5-3.8,13.6-9.6l13.7-38.7h69l11.6,33.5l0,0 c1.4,3.9,4.4,7,8.2,8.5l65,26.8h0c3.7,1.7,8,1.7,11.8,0l31.5-15.1l48.6,48.8L596.8,269c-1.6,3.7-1.6,8,0,11.7l27,65 c1.6,3.8,4.7,6.8,8.5,8.2l33.5,11.6v69l-33.5,11.6v0c-3.9,1.4-7,4.4-8.5,8.2l-27,65c-1.6,3.7-1.6,8,0,11.7l14.9,31.5l-48.6,48.8 l-31.5-15.1c-3.7-1.7-8-1.7-11.8,0l-65,26.8h0c-3.8,1.6-6.8,4.7-8.2,8.5L435,665.2H366l-13.7-38.7v0c-2-5.8-7.5-9.6-13.6-9.6h-64.9 c-7.1-22.8-29.9-37-53.6-33.4c-23.6,3.6-41.1,24-41.1,47.9c0,23.9,17.4,44.3,41.1,47.9c23.7,3.6,46.4-10.5,53.6-33.4h54.6 l13.7,38.7v0c2.1,5.7,7.5,9.6,13.6,9.6h89.5c6.1,0,11.5-3.8,13.6-9.6l12.9-36.5l53.1-22l35,16.8c5.6,2.9,12.4,1.7,16.8-2.8 l63.2-63.2c4.6-4.4,5.7-11.2,2.8-16.8l-16.8-35l22-53.1L684.2,457.7z M228,188.2c-7.9,0.1-15.1-4.6-18.1-11.9 c-3.1-7.3-1.4-15.7,4.2-21.3c5.6-5.6,14-7.2,21.3-4.2c7.3,3,12,10.2,11.9,18.1C247.2,179.5,238.7,188.1,228,188.2z M228,649.3 c-7.9,0.1-15-4.6-18.1-11.9c-3-7.3-1.4-15.6,4.1-21.2c5.5-5.6,13.9-7.3,21.2-4.3c7.3,3,12,10.1,12,18 C247.3,640.5,238.7,649.2,228,649.3L228,649.3z"></path> <path class="st0" d="M329.1,499.9c-7.2-22.8-29.9-37-53.6-33.4c-23.6,3.6-41.1,24-41.1,47.9c0,23.9,17.5,44.3,41.1,47.9 c23.6,3.6,46.4-10.6,53.6-33.4h47.6c3.8,0,7.5-1.5,10.2-4.2l32.5-33.5h35.2c4.1,0.4,8.2-0.9,11.3-3.7c3.1-2.7,4.8-6.7,4.8-10.8 c0-4.2-1.8-8.1-4.8-10.9c-3.1-2.7-7.2-4.1-11.3-3.6h-41.2c-3.8,0.1-7.5,1.7-10.2,4.4l-32.5,33.4L329.1,499.9z M283.2,533.5 c-7.9,0.1-15.1-4.6-18.1-11.9c-3-7.3-1.4-15.7,4.2-21.3c5.6-5.6,14-7.2,21.3-4.2c7.3,3.1,12,10.2,11.9,18.1 C302.5,524.8,293.8,533.5,283.2,533.5z"></path> <path class="st0" d="M400.5,545.9c-4.1-0.5-8.2,0.9-11.3,3.6c-3.1,2.8-4.8,6.7-4.8,10.9c0,4.1,1.8,8.1,4.8,10.8 c3.1,2.8,7.2,4.1,11.3,3.7c62.7,0,120.6-33.5,152-87.8c31.4-54.3,31.4-121.2,0-175.5c-31.3-54.3-89.3-87.8-152-87.8 c-4.1-0.4-8.2,0.9-11.3,3.7c-3.1,2.7-4.8,6.7-4.8,10.8c0,4.2,1.8,8.1,4.8,10.9c3.1,2.7,7.2,4.1,11.3,3.6 c52.3,0,100.7,27.9,126.9,73.3c26.2,45.3,26.2,101.1,0,146.5C501.2,517.9,452.8,545.9,400.5,545.9L400.5,545.9z"></path> </g> </svg> 