<?xml version="1.0" encoding="UTF-8"?> <svg xmlns="http://www.w3.org/2000/svg" xmlns:xlink="http://www.w3.org/1999/xlink" version="1.1" id="Layer_1" x="0px" y="0px" viewBox="0 0 800 800" style="enable-background:new 0 0 800 800;" xml:space="preserve"> <style type="text/css"> .st0{fill-rule:evenodd;clip-rule:evenodd;fill:#53BCB1;} </style> <g> <path class="st0" d="M400,329.9c22.7,0,43.2,9.2,58.1,24.1c14.9,14.9,24.1,35.4,24.1,58.1c0,20.7-7.6,39.6-20.2,54 c16.3,7.9,30.9,18.8,43,31.9c5.1-5.5,10.6-10.5,16.6-14.9c5.2-3.8,10.7-7.3,16.5-10.2c-9.5-11.7-15.2-26.6-15.2-42.9 c0-18.8,7.6-35.8,19.9-48.1c12.3-12.3,29.3-19.9,48.1-19.9c18.8,0,35.8,7.6,48.1,19.9c12.3,12.3,19.9,29.3,19.9,48.1 c0,16.3-5.7,31.2-15.2,42.9c17.2,8.8,32,21.6,43,37.3c13.4,19,21.2,42.1,21.2,67v5c0,11.5-3.5,22.2-9.8,31.1 c-6.3,8.8-15.2,15.6-26.1,19.4c-23.8,8.3-48.7,12.9-73.6,13.6c-22.7,0.7-45.5-1.7-67.6-7.3c-7.5,10.2-18,18.1-30.8,22.6 c-32.4,11.3-66.2,17-100,17s-67.5-5.6-100-17c-12.8-4.5-23.3-12.4-30.8-22.6c-22.2,5.6-44.9,8-67.6,7.3 c-24.9-0.7-49.8-5.3-73.6-13.6c-10.9-3.8-19.9-10.6-26.1-19.4c-6.3-8.8-9.8-19.5-9.8-31.1v-5c0-24.9,7.9-48,21.2-67 c11-15.7,25.8-28.6,43-37.3c-9.5-11.7-15.2-26.6-15.2-42.9c0-18.8,7.6-35.8,19.9-48.1c12.3-12.3,29.3-19.9,48.1-19.9 s35.8,7.6,48.1,19.9c12.3,12.3,19.9,29.3,19.9,48.1c0,16.3-5.7,31.2-15.2,42.9c5.8,2.9,11.3,6.4,16.5,10.2 c6,4.4,11.5,9.4,16.6,14.9c12.2-13.1,26.7-24.1,43-31.9c-12.6-14.4-20.2-33.3-20.2-54c0-22.7,9.2-43.2,24.1-58.1 C356.8,339.1,377.3,329.9,400,329.9L400,329.9z M209.1,316.1l33.8,19.6c2,1.3,4.5,1.9,7.1,1.3c5-1.1,8.2-6,7.1-11.1l-8.3-38.7 l29.1-26.1c1.8-1.5,3.1-3.7,3.4-6.3c0.5-5.1-3.2-9.7-8.3-10.2l-39.3-4l-16-36.2c-0.9-2.1-2.5-3.8-4.8-4.8 c-4.7-2.1-10.2,0.1-12.3,4.8l-16,36.2l-39.3,4v0c-2.2,0.2-4.4,1.3-6,3c-3.4,3.8-3.1,9.7,0.7,13.1l29.5,26.4l-8.3,38.7h0 c-0.5,2.2-0.2,4.5,1,6.6c2.6,4.4,8.3,6,12.7,3.4L209.1,316.1L209.1,316.1z M183.8,309.3l5-23.3c0.8-3.7-0.7-7.3-3.5-9.4l-17.2-15.4 l23.8-2.4c3.5-0.3,6.3-2.5,7.6-5.5h0l9.6-21.8l9.6,21.8c1.5,3.4,4.7,5.4,8.2,5.6l23.2,2.4l-17.8,15.9c-2.6,2.3-3.6,5.7-2.9,8.9h0 l5,23.3l-20.7-12c-3-1.8-6.7-1.6-9.5,0.1L183.8,309.3L183.8,309.3z M590.9,316.1l33.8,19.6c2,1.3,4.5,1.9,7.1,1.3 c5-1.1,8.2-6,7.1-11.1l-8.3-38.7l29.1-26.1c1.8-1.5,3.1-3.7,3.4-6.3c0.5-5.1-3.2-9.7-8.3-10.2l-39.3-4l-16-36.2 c-0.9-2.1-2.5-3.8-4.8-4.8c-4.7-2.1-10.2,0.1-12.3,4.8l-16,36.2l-39.3,4v0c-2.2,0.2-4.4,1.3-6,3c-3.4,3.8-3.1,9.7,0.7,13.1 l29.5,26.4l-8.3,38.7h0c-0.5,2.2-0.2,4.5,1,6.6c2.6,4.4,8.3,6,12.7,3.4L590.9,316.1L590.9,316.1z M565.6,309.3l5-23.3 c0.8-3.7-0.7-7.3-3.5-9.4l-17.2-15.4l23.8-2.4c3.5-0.3,6.3-2.5,7.6-5.5h0l9.6-21.8l9.6,21.8c1.5,3.4,4.7,5.4,8.2,5.6l23.2,2.4 l-17.8,15.9c-2.6,2.3-3.6,5.7-2.9,8.9h0l5,23.3l-20.7-12c-3-1.8-6.7-1.6-9.5,0.1L565.6,309.3L565.6,309.3z M400,269.1l-46.5,27 c-4.4,2.6-10.1,1.1-12.7-3.4c-1.2-2.1-1.5-4.4-1-6.6h0l11.3-52.5l-40-35.8c-3.8-3.4-4.1-9.3-0.7-13.1c1.6-1.8,3.8-2.8,6-3v0 l53.4-5.5l21.7-49.2c2.1-4.7,7.6-6.8,12.3-4.8c2.2,1,3.9,2.7,4.8,4.8l21.7,49.2l53.4,5.5c5.1,0.5,8.8,5.1,8.3,10.2 c-0.2,2.6-1.5,4.8-3.4,6.3L449,233.5l11.3,52.5c1.1,5-2.1,10-7.1,11.1c-2.5,0.5-5.1,0-7.1-1.3L400,269.1L400,269.1z M362.5,269.4 l32.8-19.1c2.8-1.7,6.4-1.8,9.5-0.1l32.9,19.1l-8-37.2h0c-0.7-3.2,0.3-6.6,2.9-8.9l28.4-25.4l-37.3-3.8c-3.4-0.1-6.7-2.2-8.2-5.6 l-15.4-34.8l-15.4,34.8h0c-1.3,3-4.1,5.2-7.6,5.5l-37.8,3.8l27.8,24.9c2.8,2.1,4.3,5.7,3.5,9.4L362.5,269.4z M260.5,622.1 c-2.2-6.6-3.4-13.6-3.4-21v-6.2c0-30.4,9.6-58.6,26-81.9l0.2-0.3c-4.7-5.4-10-10.3-15.8-14.6c-6.3-4.6-13.1-8.5-20.3-11.6 c-10.8,7.3-23.9,11.5-37.9,11.5s-27.1-4.2-37.9-11.5c-17.2,7.2-32,19.3-42.7,34.5c-11.2,16-17.8,35.4-17.8,56.3v5 c0,7.6,2.2,14.6,6.3,20.3c4.1,5.7,9.9,10.2,17.1,12.7c22.1,7.7,45,11.9,68,12.6C221.7,628.5,241.2,626.6,260.5,622.1L260.5,622.1z M281.4,623.5c0.1,0.2,0.2,0.4,0.3,0.6c0.7,1.2,1.4,2.4,2.2,3.5c5.3,7.5,12.9,13.3,22.3,16.5c30.3,10.6,62,15.9,93.8,15.9 c31.8,0,63.5-5.3,93.8-15.9c9.3-3.3,17-9.1,22.3-16.5c0.8-1.1,1.6-2.3,2.2-3.5c0.1-0.2,0.2-0.4,0.3-0.6c3.6-6.6,5.6-14.2,5.6-22.4 v-6.2c0-26.4-8.3-51-22.5-71.2c-13.7-19.5-32.8-34.9-55-44c-13.3,9.2-29.4,14.6-46.8,14.6c-17.4,0-33.5-5.4-46.8-14.6 c-22.3,9.1-41.3,24.5-55,44c-14.2,20.2-22.5,44.7-22.5,71.2v6.2C275.7,609.3,277.7,616.9,281.4,623.5L281.4,623.5z M244.1,395.1 c-8.9-8.9-21.3-14.5-34.9-14.5s-26,5.5-34.9,14.5c-8.9,8.9-14.5,21.3-14.5,34.9s5.5,26,14.5,34.9c8.9,8.9,21.3,14.5,34.9,14.5 s26-5.5,34.9-14.5c8.9-8.9,14.5-21.3,14.5-34.9S253,404.1,244.1,395.1z M516.9,512.7l0.2,0.3c16.3,23.3,26,51.5,26,81.9v6.2 c0,7.3-1.2,14.4-3.4,21c19.2,4.4,38.8,6.4,58.3,5.8c23-0.7,45.9-4.9,68-12.6c7.2-2.5,13-6.9,17.1-12.7c4-5.7,6.3-12.7,6.3-20.3v-5 c0-20.9-6.6-40.3-17.8-56.3c-10.6-15.2-25.4-27.2-42.7-34.5c-10.8,7.3-23.9,11.5-37.9,11.5s-27.1-4.2-37.9-11.5 c-7.2,3-14.1,6.9-20.3,11.6C526.9,502.4,521.6,507.3,516.9,512.7L516.9,512.7z M625.8,395.1c-8.9-8.9-21.3-14.5-34.9-14.5 s-26,5.5-34.9,14.5c-8.9,8.9-14.5,21.3-14.5,34.9s5.5,26,14.5,34.9c8.9,8.9,21.3,14.5,34.9,14.5s26-5.5,34.9-14.5 c8.9-8.9,14.5-21.3,14.5-34.9S634.7,404.1,625.8,395.1z M445,367.2c-11.5-11.5-27.4-18.6-44.9-18.6c-17.5,0-33.4,7.1-44.9,18.6 s-18.6,27.4-18.6,44.9c0,17.5,7.1,33.4,18.6,44.9c11.5,11.5,27.4,18.6,44.9,18.6c17.5,0,33.4-7.1,44.9-18.6 c11.5-11.5,18.6-27.4,18.6-44.9C463.6,394.6,456.4,378.7,445,367.2z"></path> </g> </svg> 