<?xml version="1.0" encoding="UTF-8"?> <svg xmlns="http://www.w3.org/2000/svg" version="1.1" viewBox="0 0 310 350"><defs><style> .cls-1 { fill: #6fbcb2; } </style></defs><g><g id="Layer_1"><path class="cls-1" d="M234.5,224.7c-3.6,20.4-12.7,38.9-25.7,54-4.8-9.7-15.7-14.8-9.8-27.7,2.8-6.2,8-17.8,2.6-26.2-7.1-12.2-24.9-2.9-31.1-13.8-6.7-13.3,1.2-34.6,21-32.5-2.1-3.1-4.1-6.2-6.1-9.3-21.3,1.1-33.3,29.8-23,46.6,4,6.9,10.9,10.7,19.1,10.5,33.2.9-10,26.7,15,50.8,4.6,5.7,6.3,7.8,2,12-89.8,80.6-228.4-24.2-174.6-132.9,3.3,8.3,6.5,19.1,13.3,25.2,1.2,1.8,12.6,11.1,12,13.5.5,11.6-2.8,30.3,7.5,38.8,3.8,3.4,7.5,7.8,7.3,13.3v35.5c0,5.4,3.7,9.4,9.5,10.1,8.7,1.3,17.6-5,19.2-11.8,3.4-12.2,2.7-19,13.2-27.8,11.1-12.7-1.8-14.1,16.4-25.9,16-11.2,10.8-40-10.5-39.7-1.7,0-4.2.3-5.4-1.1-9.4-11-17.7-13-31.8-12.1-1.6,0-2.9-1.2-3.2-2.8-2.8-13,1.6-14,3.5-14.4,10.1-2.4,25.8-3.9,30.1-15.4,7.5-12.5-8.3-32.2-12.6-43.3,19.9-6.1,43.3-6.1,63.2,0-.4-3.3,2.6-9.2-.6-9.9C-21.5,47.7-59,316.7,124.3,326.8c59.4,3.3,110.1-43.4,119.7-101.6-3.1.4-6.4.2-9.5-.4h0ZM83.6,101.3c10.9,25.2,29.8,40.3-10.7,46.5-13.3,3.1-12.3,17.3-10.6,25.5,1.8,10.5,12.9,10.8,21.4,10.2,6.7-.4,11.9,4.9,16.1,9.4,3.1,3.3,7.7,4.1,12.1,3.8,12.4,0,13.5,16.9,4.6,22.9-24.3,16.7-5.3,17.2-23.3,32.9-5.9,5.2-7.5,18.8-9.7,25.9,0,2.9-8.9,6.7-10.2,4-1.3-12.6,4.5-43.1-7-52.3-11.5-8.4-7-23.3-7.8-35.3-.7-12.5-18.4-18.7-21.5-30.6l-7.3-18.8c12.7-19.9,31.5-35.6,53.7-44.3l.2.2h0Z"></path><path class="cls-1" d="M268.1,84.2c-2.6,0-4.7,2.1-4.7,4.7,0,12.6-10.2,22.8-22.8,22.8-30-.5-30-45.1,0-45.6,6.1,0,6.1-9.5,0-9.4-42.3.8-42.3,63.7,0,64.4,22.5,2.5,42-33.4,27.5-36.9h0Z"></path><path class="cls-1" d="M240.6,23.1c-36.3,0-65.8,29.5-65.8,65.8.5,38.8,39.8,89.2,57.5,112.7,4,5.4,12.6,5.4,16.6,0,17.7-23.5,57-74,57.5-112.7,0-36.3-29.5-65.8-65.8-65.8h0ZM243.4,193.4c-2.6,3.7-2.8,4-5.5,0-183.1-213.9,188.6-213.8,5.5,0Z"></path></g></g></svg> 