<?xml version="1.0" encoding="UTF-8"?> <svg xmlns="http://www.w3.org/2000/svg" version="1.1" viewBox="0 0 310 350"><defs><style> .cls-1 { fill: none; stroke: #6fbcb2; stroke-linecap: round; stroke-linejoin: round; stroke-width: 9.4px; } </style></defs><g><g id="Layer_1"><path class="cls-1" d="M226.5,74.7c0,10.8,8.6,19.6,20.3,19.6s20.3-8.8,20.3-19.6-8.6-19.6-20.3-19.6-20.3,8.8-20.3,19.6Z"></path><path class="cls-1" d="M209.4,164.2v-22.4c0-13.8,11.2-24.9,24.9-24.9h25c13.8,0,24.9,11.2,24.9,24.9v8.9"></path><path class="cls-1" d="M91.3,74.7c0,10.8,8.6,19.6,20.3,19.6s20.3-8.8,20.3-19.6-8.6-19.6-20.3-19.6-20.3,8.8-20.3,19.6Z"></path><path class="cls-1" d="M74.1,164.2v-22.4c0-13.8,11.2-24.9,24.9-24.9h25c13.8,0,24.9,11.2,24.9,24.9v15.6"></path><path class="cls-1" d="M158.9,63.3c0,10.8,8.6,19.6,20.3,19.6s20.3-8.8,20.3-19.6-8.6-19.6-20.3-19.6-20.3,8.8-20.3,19.6Z"></path><path class="cls-1" d="M216.3,124.3c-1.9-11.9-12.2-20.9-24.6-20.9h-25c-12.5,0-22.9,9.2-24.7,21.2"></path><path class="cls-1" d="M121.5,225h81.7c5.1,0,10.1-1.7,14.2-4.8l52.9-42.6c17.2-14.6,33.8,1.4,33.8,13.5s-7.3,14.8-13.5,20.3l-60.8,47.3c-4,2.4-6.8,6.8-20.3,6.8h-81.1c-4.9,0-10,3.3-13.5,6.8l-16.9,16.9"></path><path class="cls-1" d="M128.2,225h64.7c8.2,0,15.2-4.9,18.4-11.9,2.4-5.3,2.4-11.4,0-16.7-3.2-7-10.2-11.9-18.4-11.9h-91.8c-10.1,0-19.9,6.3-27,13.5l-33.8,33.8"></path><polyline class="cls-1" points="6.5 238.5 26.8 218.2 114.7 306.1 94.4 326.4"></polyline></g></g></svg> 