<?xml version="1.0" encoding="UTF-8"?> <svg xmlns="http://www.w3.org/2000/svg" version="1.1" viewBox="0 0 310 350"><defs><style> .cls-1 { fill: #6fbcb2; } </style></defs><g><g id="Layer_1"><path class="cls-1" d="M10.5,289.5l26.3,1.3h.2c1.9,0,3.6-1.2,4.3-2.9l13.5-34.7c.9-2.4-.2-5-2.6-6-2.4-.9-5,.3-6,2.6l-12.3,31.6-16.6-.8,28.4-72.1,14.4,5.6-1.9,5c-.9,2.4.2,5,2.6,6,.5.2,1.1.3,1.7.3,1.8,0,3.6-1.1,4.3-2.9l1.9-5,16.1,6.3,3.6,31c.3,2.3,2.2,4,4.5,4.1l23.2.4h0c1.3,0,2.5-.5,3.4-1.5s1.3-2.2,1.2-3.5c-.4-4.6-.8-9.3-1.1-13.9-.7-9.1-1.4-18.5-2.4-27.8-.7-6.8-2.6-11-5.9-12.8-7.3-4-14.8-8-22-11.8-2.8-1.5-5.7-3-8.5-4.5l-.5-23.3,23.3,18.8c0,.1.3.2.4.3,2.5,1.6,5,2.3,7.3,2.3,4.3,0,8-2.4,10.1-5.5,3.9-5.8,2.8-13-2.5-16.9-3.9-2.8-7.7-5.8-11.5-8.7l-1.4-1.1c-2-1.6-4.9-1.2-6.5.8s-1.2,4.9.8,6.5l1.4,1.1c3.8,2.9,7.7,5.9,11.7,8.8,1.7,1.2,1,3.4.3,4.3-1.1,1.7-2.7,1.9-4.7.7l-29.1-23.4-.2-7.7c1,.8,2.2,1.7,3.7,2.9.8.7,1.9,1,2.9,1s2.7-.6,3.6-1.7c1.6-2,1.3-4.9-.7-6.5-4.4-3.5-5.9-4.6-9.5-7.2h-.2v-.5c0-.8-.3-1.6-.7-2.4-4.5-7.1-10.6-12-17.7-14.7,9-3.7,15.4-12.5,15.4-22.8s-11-24.6-24.6-24.6-24.6,11-24.6,24.6,5.2,17.4,12.8,21.6c-17.2,3.7-28.2,12.3-30.9,24.4-2.4,10.6-2.1,21.4-1.9,31.9,0,5.2.2,10.6,0,15.8-.2,4.3,2,8.2,5.9,10.5,4.8,2.9,11.7,3,16.4.2,3.6-2.1,5.5-5.7,5.4-9.8,0-2.4-.2-4.9-.4-7.3-.5-8.5-.9-17.4,0-25.8,0-1.4.4-2.6.9-3.7v3.4c0,2.5,2.1,4.6,4.6,4.6s4.6-2.1,4.6-4.6v-13.2c0-1.5-.8-3-2.1-3.8-1.3-.9-2.9-1-4.4-.4-7.8,3.4-12,8.9-12.8,16.9-.9,9.1-.4,18.3,0,27.2.1,2.4.3,4.8.4,7.2,0,.7-.1,1.1-.9,1.5-1.8,1-5,.9-6.9-.2-1.4-.9-1.4-1.8-1.4-2.2.2-5.5.1-11,0-16.4-.2-10.4-.5-20.2,1.7-29.7,1.9-8.3,10.8-14.7,24.5-17.5,11.4-2.3,21.4,1.7,27.8,10.9l1.3,56.5c0,1.7,1,3.2,2.4,4,3.6,1.9,7.3,3.9,10.9,5.8,7.1,3.8,14.5,7.6,21.6,11.6.2.4,1,1.8,1.4,5.8.9,9.1,1.7,18.5,2.4,27.5.2,3,.5,5.9.7,8.9l-14.1-.3-3.5-29.7c-.2-1.7-1.3-3.1-2.9-3.8l-45.3-17.7c-.7-.8-1.5-3.6-.9-9.6v-12.5c0-2.5-2.1-4.6-4.6-4.6s-4.6,2.1-4.6,4.6v11.9c-.6,6.9,0,11.9,2.3,15.2l-31.3,79.6c-.5,1.4-.4,2.9.4,4.2.8,1.2,2.2,2,3.6,2.1h0ZM52.1,73.2c8.5,0,15.4,6.9,15.4,15.4s-6.9,15.4-15.4,15.4-15.4-6.9-15.4-15.4,6.9-15.4,15.4-15.4Z"></path><path class="cls-1" d="M301.8,162.1h-83.6v-80.2h72.5c1.9,0,3.7-1.2,4.3-3,.7-1.8.1-3.8-1.3-5.1l-25-21.2,25.1-23.6c1.4-1.3,1.8-3.3,1.1-5.1-.7-1.8-2.4-2.9-4.3-2.9h-17.8c-2.5,0-4.6,2.1-4.6,4.6s2.1,4.6,4.6,4.6h6.2l-20.4,19.2c-1,.9-1.5,2.2-1.4,3.5,0,1.3.6,2.5,1.6,3.4l19.3,16.4h-60V30.2h19.5c2.5,0,4.6-2.1,4.6-4.6s-2.1-4.6-4.6-4.6h-24.1c-2.5,0-4.6,2.1-4.6,4.6v136.5h-24.6c-2.5,0-4.6,2.1-4.6,4.6v48h-54.1c-2.5,0-4.6,2.1-4.6,4.6v48h-54.1c-2.5,0-4.6,2.1-4.6,4.6v48H8.2c-2.5,0-4.6,2.1-4.6,4.6s2.1,4.6,4.6,4.6h58.7c2.5,0,4.6-2.1,4.6-4.6v-48h54.1c2.5,0,4.6-2.1,4.6-4.6v-48h54.1c2.5,0,4.6-2.1,4.6-4.6v-48h112.8c2.5,0,4.6-2.1,4.6-4.6s-2.1-4.6-4.6-4.6h0Z"></path></g></g></svg> 