<?xml version="1.0" encoding="UTF-8"?> <svg xmlns="http://www.w3.org/2000/svg" version="1.1" viewBox="0 0 310 350"><defs><style> .cls-1 { fill: none; stroke: #6fbcb2; stroke-linecap: round; stroke-linejoin: round; stroke-width: 9.4px; } </style></defs><g><g id="Layer_1"><path class="cls-1" d="M155,210.2c-2.2,0-4.4-.3-6.6-1.3l-85.6-29.8v54.2c0,1.9.6,3.8,2.2,4.7,1.3,1.3,32,27.9,90,27.9s88.7-26.6,90-27.9c1.3-1.3,2.2-3.1,2.2-4.7v-54.2l-85.6,29.8c-2.2.6-4.4,1.3-6.6,1.3h0Z"></path><path class="cls-1" d="M299.3,133.7l-141.7-49.2c-1.6-.6-3.1-.6-4.7,0L10.8,133.7c-6.3,2.2-6.3,11.3,0,13.8l141.7,49.2c1.6.6,3.1.6,4.7,0l116.9-40.8v31l-7.5,5c-1.6,1.3-2.8,3.1-2.8,5.3v16.9c0,3.4,2.8,6.3,6.3,6.3h20.7c3.4,0,6.3-2.8,6.3-6.3v-16.9c0-2.2-.9-4.1-2.8-5.3l-7.5-5v-35.4l11.9-4.1c6.9-2.5,6.9-11.6.6-13.8h0Z"></path></g></g></svg> 