<?xml version="1.0" encoding="UTF-8"?> <svg xmlns="http://www.w3.org/2000/svg" version="1.1" viewBox="0 0 310 350"><defs><style> .cls-1 { fill: #6fbcb2; } </style></defs><g><g id="Layer_1"><path class="cls-1" d="M298.6,255.9l-58.7-38.7c-9-5.8-19.9-8.2-30.6-6.9l-106.5,13.5-35.7-25.3c-8.1-6-19.1-5.8-27,0-10.1-7.4-24.3-5.3-31.7,4.8-3.6,4.9-5.1,10.9-4.2,16.9s4.1,11.3,8.9,14.9l118,87.3h0c4,3,8.8,4.7,13.7,4.7s2.1,0,3.1-.2l94.2-12.9c5.4-.7,10.9.5,15.2,3.3,3.6,2.7,8.3,3.8,12.7,2.9,4.4-.8,8.4-3.5,10.9-7.2l22.3-34.4c4.9-7.6,2.8-17.8-4.8-22.7h.2ZM62,205.7l30.4,21.6c-1.7,1-3.2,2.3-4.6,3.8-14.1-8.6-27.7-17.7-40-26.9,4.5-2,9.9-1.6,14.2,1.5h0ZM296,273.9l-22.3,34.4c-1.2,1.8-3,3-5.1,3.4s-4.2-.1-6.1-1.5c-6.3-4.1-14-5.8-21.4-4.8l-94.2,12.9c-3.7.5-7.4-.5-10.4-2.8h0L18.4,228c-3-2.2-4.9-5.4-5.5-9.1-.6-3.7.4-7.4,2.6-10.3,4.6-6.2,13.3-7.5,19.4-3,.8.6,1.6,1.2,2.3,1.7h0c13.8,10.5,29.4,21.1,45.7,31.1-1.4,3.5-1.9,7.4-1.4,11.2.8,6,3.9,11.3,8.8,15,4.9,3.7,10.8,5.3,16.8,4.4l25.7-3.5c18.4,8.7,42,18.1,57.5,18.1s2.8-.1,4.1-.3h.7c9.4-1.4,16-10.1,14.7-19.6-.6-4.6-3-8.7-6.7-11.5s-8.3-4-12.9-3.4h0l-84.5,11.5c-3.7.5-7.3-.5-10.3-2.7-3-2.3-4.9-5.5-5.4-9.2s.5-7.3,2.7-10.3c2.3-3,5.5-4.9,9.1-5.4l108.2-13.7c8.6-1.1,17.4.9,24.7,5.5l58.6,38.7c3.5,2.3,4.5,7,2.2,10.6h.5ZM191.8,257.6h0c2.3-.3,4.5.3,6.4,1.7,1.8,1.4,3,3.4,3.3,5.7.3,2.3-.3,4.5-1.7,6.4-1.4,1.8-3.4,3-5.7,3.3h0c-8.2,1.4-24-2.8-44.4-11.3l42.2-5.8h-.1Z"></path><g><path class="cls-1" d="M164.2,22.9c-46.7,0-84.6,38-84.6,84.6s38,84.6,84.6,84.6,84.6-38,84.6-84.6S210.9,22.9,164.2,22.9ZM164.2,183.3c-41.8,0-75.8-34-75.8-75.8S122.4,31.7,164.2,31.7s75.8,34,75.8,75.8-34,75.8-75.8,75.8Z"></path><path class="cls-1" d="M164.2,73.2c8.2,0,14.9,6.7,14.9,14.9s2,4.4,4.4,4.4,4.4-2,4.4-4.4c0-11.6-8.3-21.2-19.3-23.3v-16.5c0-2.4-2-4.4-4.4-4.4s-4.4,2-4.4,4.4v16.5c-11,2.1-19.3,11.7-19.3,23.3s10.7,23.7,23.7,23.7,14.9,6.7,14.9,14.9-6.7,14.9-14.9,14.9-14.9-6.7-14.9-14.9-2-4.4-4.4-4.4-4.4,2-4.4,4.4c0,11.6,8.3,21.2,19.3,23.3v16.5c0,2.4,2,4.4,4.4,4.4s4.4-2,4.4-4.4v-16.5c11-2.1,19.3-11.7,19.3-23.3s-10.7-23.7-23.7-23.7-14.9-6.7-14.9-14.9,6.7-14.9,14.9-14.9Z"></path></g></g></g></svg> 