<?xml version="1.0" encoding="UTF-8"?> <svg xmlns="http://www.w3.org/2000/svg" version="1.1" viewBox="0 0 310 350"><defs><style> .cls-1 { fill: #6fbcb2; } </style></defs><g><g id="Layer_1"><path class="cls-1" d="M302.1,150.2c-2.7-4.2-6.8-7.1-11.6-8.2-4.8-1.1-9.8-.2-14,2.4-4.2,2.7-7.1,6.8-8.2,11.7l-8.1,36.3c-5.5-3.2-12.5-3.4-18.2.2l-30.6,19.3c-8.5,2-16.4,5-23.6,8.8-16.3,8.8-28.1,25-32.7,44.4-4.5-19.4-16.4-35.6-32.7-44.4-7.2-3.9-15.1-6.9-23.6-8.8l-30.6-19.3c-5.7-3.6-12.7-3.4-18.2-.2l-8.1-36.3c-1.1-4.9-4-9-8.2-11.7-4.2-2.6-9.2-3.5-14-2.4-10,2.2-16.3,12.2-14.1,22.2l16.1,71.9c1.9,8.4,6.9,15.5,14.2,20.1l57.2,36.2c5.5,3.5,8.8,9.5,8.8,16v12.2c0,2.4,1.9,4.3,4.3,4.3s4.3-1.9,4.3-4.3v-12.2c0-9.5-4.8-18.2-12.8-23.3l-57.2-36.2c-5.3-3.4-9-8.6-10.4-14.7l-16.1-71.9c-.6-2.6-.1-5.2,1.3-7.5,1.4-2.2,3.6-3.8,6.2-4.4,2.6-.6,5.2-.1,7.5,1.3,2.2,1.4,3.8,3.6,4.4,6.2l9.5,42.3c-1.5,3.4-1.9,7.2-1.1,10.9,1,4.6,3.8,8.4,7.8,11l38.1,23.3c2.1,1.3,4.7.6,6-1.4,1.2-2,.6-4.7-1.4-6l-38.1-23.2c-2-1.3-3.4-3.2-3.9-5.5s0-4.7,1.2-6.6c2.6-4.1,8-5.3,12.2-2.7l31.2,19.7c.4.3.9.5,1.4.6,8,1.8,15.4,4.5,22.1,8.2,14.3,7.7,24.7,22.1,28.5,39.3l3.9,17.6v35.5c0,2.4,1.9,4.3,4.3,4.3s4.3-1.9,4.3-4.3v-35.4l3.9-17.6c3.9-17.3,14.3-31.6,28.5-39.3,6.7-3.6,14.1-6.4,22.1-8.2.5-.1,1-.3,1.4-.6l31.2-19.7c4.1-2.6,9.5-1.4,12.2,2.7,1.3,2,1.7,4.4,1.2,6.6-.5,2.3-1.9,4.3-3.8,5.5l-38.1,23.3c-2.1,1.2-2.7,3.9-1.4,6,1.2,2,3.9,2.7,6,1.4l38.2-23.3c7.4-4.7,10-14,6.6-21.8l9.5-42.3c.6-2.6,2.1-4.8,4.4-6.2,2.2-1.4,4.9-1.9,7.5-1.3,2.6.6,4.8,2.1,6.2,4.4,1.4,2.2,1.9,4.9,1.3,7.5l-16.1,71.9c-1.4,6.1-5,11.3-10.3,14.7l-57.2,36.2c-8,5.1-12.8,13.8-12.8,23.3v12.2c0,2.4,1.9,4.3,4.3,4.3s4.3-1.9,4.3-4.3v-12.2c0-6.5,3.3-12.5,8.8-16l57.2-36.2c7.3-4.6,12.3-11.8,14.2-20.1l16.1-71.9c1.1-4.8.2-9.8-2.4-14l-.3-.3Z"></path><path class="cls-1" d="M102,142.9l10.1,17.6c.6,1,1.5,1.7,2.6,2s2.3.1,3.3-.4l22.4-12.9v25.9c0,2.4,1.9,4.3,4.3,4.3h20.3c2.4,0,4.3-1.9,4.3-4.3v-25.9l22.4,12.9c2.1,1.2,4.7.5,5.9-1.6l10.1-17.6c.6-1,.7-2.2.4-3.3s-1-2.1-2-2.6l-22.4-12.9,22.4-12.9c1-.6,1.7-1.5,2-2.6s.1-2.3-.4-3.3l-10.1-17.6c-1.2-2.1-3.8-2.8-5.9-1.6l-22.4,12.9v-25.9c0-2.4-1.9-4.3-4.3-4.3h-20.3c-2.4,0-4.3,1.9-4.3,4.3v25.9l-22.4-12.9c-1-.6-2.2-.7-3.3-.4-1.1.3-2.1,1-2.6,2l-10.1,17.6c-.6,1-.7,2.2-.4,3.3.3,1.1,1,2.1,2,2.6l22.4,12.9-22.4,12.9c-2.1,1.2-2.8,3.9-1.6,5.9h0ZM136.9,127.8c1.3-.8,2.2-2.2,2.2-3.8s-.8-3-2.2-3.8l-25.2-14.5,5.8-10,25.2,14.5c1.3.8,3,.8,4.3,0s2.2-2.2,2.2-3.8v-29.1h11.6v29.1c0,1.6.8,3,2.2,3.8,1.3.8,3,.8,4.3,0l25.2-14.5,5.8,10-25.2,14.5c-1.3.8-2.2,2.2-2.2,3.8s.8,3,2.2,3.8l25.2,14.5-5.8,10-25.2-14.5c-1.3-.8-3-.8-4.3,0s-2.2,2.2-2.2,3.8v29.1h-11.6v-29.1c0-1.6-.8-3-2.2-3.8s-3-.8-4.3,0l-25.2,14.5-5.8-10,25.2-14.5Z"></path><path class="cls-1" d="M152.8,222.5c.7.4,1.4.6,2.2.6s1.5-.2,2.2-.6c43.4-25,71-50,92.5-83.7,21.1-36.6,19.6-71.1-4.2-94.4-25-24.5-64.7-25.8-90.5-3.4-25.8-22.3-65.5-21.1-90.5,3.4-23.8,23.4-25.3,57.8-4.1,94.6,21.4,33.6,49,58.6,92.4,83.6h0ZM70.6,50.5c11.4-11.2,26.4-16.9,41.3-16.9s29.1,5.4,40.1,16.2c1.7,1.7,4.4,1.7,6.1,0,22.3-21.9,58.7-21.6,81.3.6,28.4,27.9,13.9,64.5,2.9,83.7-20.2,31.8-46.4,55.6-87.2,79.5-40.8-23.8-67-47.7-87.1-79.3-11.2-19.4-25.6-56,2.8-83.9h-.2Z"></path></g></g></svg> 