<?xml version="1.0" encoding="UTF-8"?>
<svg id="Layer_1" xmlns="http://www.w3.org/2000/svg" version="1.1" viewBox="0 0 310 350">
  <!-- Generator: Adobe Illustrator 29.5.1, SVG Export Plug-In . SVG Version: 2.1.0 Build 141)  -->
  <defs>
    <style>
      .st0 {
        fill: #6fbcb2;
        fill-rule: evenodd;
      }
    </style>
  </defs>
  <path class="st0" d="M304.6,102.8c-2.2-14.5-7.2-26.6-14.1-36.3-7.9-11.2-18.1-19.4-29.1-24.9-10.1-5.1-20.9-7.8-31-8.3-10.6-.5-20.4,1.6-28.1,5.9-8,4.5-15,7.6-21.3,9.3-6.2,1.6-11.8,2-17.3,1.2-4.2-.6-10-5.6-17.1-11.6-16.7-14.1-39.7-33.6-74.1-25-14.8,3.7-35.3,13.7-49.9,32.7-10.5,13.6-18,31.9-18.3,55.6,0,7.8,0,20.1,1.2,33.9,1.3,14,3.9,29.6,9,43.9,3.8,10.8,8.5,21.4,13.5,31.6,5,10,10.3,19.7,15.5,28.8,3.5,6.1,6.3,10.8,9,15.4,6.6,11.1,12.3,20.7,15.7,28.3,5.4,11.9,7.7,22.4,9.5,30.8,1.6,7.3,2.9,13.1,5.6,17.4,1.2,1.9,2.6,3.4,4.2,4.6,2.7,2,5.8,3,9,3s6.3-.9,9.3-2.8c2.3-1.4,4.4-3.4,6.2-5.9,5-6.8,8.8-17.2,13-28.5,1.7-4.6,3.4-9.4,5.2-13.8,3.5-8.7,9.3-15.6,16.1-20.1,4.9-3.3,10.2-5.2,15.4-5.4,5-.2,9.9,1.1,14.1,4.4,4.3,3.3,7.9,8.5,10.4,16.1.2.7.5,1.6,1.3,4,1.5,4.5,3,8.9,4.6,13.3,1,2.5,1.8,4.7,2.5,6.7,3.2,8.9,5.3,14.7,11.3,16.8h0c3.7,1.2,8.8,1.2,14.5-3.9,3.5-3.2,7.4-8.4,11.4-16.9,8.2-17.6,17.6-35.1,26.9-52.4,8.7-16.3,17.4-32.4,24.9-48.4,7.7-16.3,14.1-32.5,18-48.9,3.9-16.6,5.3-33.3,2.8-50.4l.2-.2ZM294.2,151.4c-3.8,15.8-10,31.5-17.5,47.4-7.4,15.8-16,31.8-24.7,48-9.4,17.5-18.8,35.1-27.1,52.9-3.4,7.4-6.6,11.8-9.5,14.4-3,2.7-5.3,2.8-6.8,2.3h0c-2.4-.9-4-5.3-6.5-12-.8-2.2-1.6-4.5-2.6-6.9-1.5-3.8-3-8.3-4.5-12.9l-1.4-4.1c-3-9.1-7.6-15.6-13.1-19.8-.4-.3-.8-.6-1.1-.8,3.1.3,6.3.8,9.5,1.4,9.2,1.7,18.6,4.6,28.1,8.8,1.2.5,2.6,0,3.1-1.2s0-2.6-1.2-3.1c-9.9-4.4-19.7-7.4-29.2-9.2-9.3-1.8-18.4-2.3-27.1-2h-2.3c-8.9.6-17.3,2.2-25.2,4.7-8.4,2.7-16.1,6.3-22.9,10.6-1.1.7-1.4,2.1-.7,3.2.7,1.1,2.1,1.4,3.2.7,6.5-4.1,13.9-7.5,21.8-10.1,1-.3,2-.6,3-.9-7,5.3-12.9,12.9-16.6,22-1.9,4.8-3.7,9.5-5.3,14.1-3.9,10.7-7.6,20.7-11.9,26.5-1.3,1.7-2.7,3-4.1,3.9-1.7,1.1-3.5,1.6-5.2,1.6s-3.1-.5-4.3-1.4c-.8-.6-1.6-1.4-2.2-2.4-2-3.1-3.1-8.3-4.5-14.9-1.9-8.7-4.3-19.6-10-32.3-3.6-8.1-9.4-17.9-16.1-29.1-3.1-5.2-6.3-10.6-9-15.3-5.1-8.8-10.3-18.3-15.3-28.4-4.9-9.9-9.4-20.2-13.1-30.7-4.9-13.7-7.4-28.6-8.6-42-1.3-13.5-1.3-25.5-1.2-33.2.2-21.8,7.1-38.5,16.7-50.9,13.4-17.3,32-26.5,45.6-29.8,29-7.3,49.7,8.7,64.9,21.5.1.3.3.5.6.7.5.3,1,.7,1.5,1h.1c8,6.9,14.6,12.4,21,13.4,4.4,2.1,9,3.7,13.8,4.3,7.6,1,15.7,1.5,23.8,1.1,7.5-.3,14.8-1.3,21.7-3,.8-.2,1.4-1.1,1.1-1.9-.2-.8-1.1-1.4-1.9-1.1-6.7,1.7-13.8,2.6-21.1,2.9-7.9.3-15.8,0-23.2-1.1-1.3-.2-2.7-.5-4-.8,3.4-.2,6.8-.8,10.4-1.8,7-1.9,14.6-5.2,23.2-10.1,6.4-3.6,14.8-5.3,23.9-4.9,9,.4,18.7,2.8,27.8,7.5,9.9,5,19.1,12.3,26.2,22.4,6.2,8.8,10.8,19.7,12.8,32.9,2.4,16.1,1.1,31.8-2.6,47.5l-.2.4Z"/>
  <path class="st0" d="M113.9,108.4c-6.6-.4-12.2,5.2-12.4,12.6-.2,7.4,4.8,13.5,11.3,13.8,6.4.2,12-5.4,12.4-12.6.4-7.2-4.6-13.4-11.3-13.8Z"/>
  <path class="st0" d="M125.2,77c-2.5-1.7-5.2-2.7-7.9-3.2-2.7-.4-5.5-.2-8.1.7-3.5,1.2-6.7,3.5-8.9,6.8-1.2,1.8-.8,4.2,1,5.5,1.8,1.2,4.2.8,5.5-1,1.3-1.9,3-3.2,4.9-3.8,1.4-.5,2.9-.6,4.4-.3,1.6.2,3.1.9,4.6,1.9,2.7,1.8,5.1,5,6.6,9.5.7,2.1,2.9,3.2,5,2.5,2.1-.7,3.2-2.9,2.5-4.9-2.1-6.3-5.6-10.8-9.6-13.6h0Z"/>
  <path class="st0" d="M213.1,139.4c5.8.3,11.5-4.8,12.7-11.3s-2.7-12.1-8.8-12.5c-6-.4-11.7,4.6-12.7,11.3-1,6.6,2.9,12.2,8.8,12.5Z"/>
  <path class="st0" d="M207.4,101.9c2.1-3.4,4.6-5.6,7.1-6.9,2-1,4-1.4,6-1.3,1.8,0,3.5.5,4.9,1.4,0,0,.2,0,.2.2,1.5.9,2.6,2.2,3.4,3.7.9,1.9,3.3,2.7,5.2,1.8,1.9-1,2.7-3.3,1.8-5.2-1.5-3-3.7-5.3-6.3-7-.1,0-.2,0-.3-.2-2.6-1.5-5.5-2.4-8.7-2.5s-6.5.6-9.7,2.1c-3.9,1.9-7.5,5.1-10.4,9.8-1.1,1.9-.6,4.3,1.3,5.4,1.9,1.1,4.3.6,5.4-1.3h.1Z"/>
  <path class="st0" d="M115.1,160.4c-3.1-2.6-7.1-4.5-11.7-5.2h-.5c-1-.1-2-.2-3-.3h-1.4c-2.3,0-4.4.4-6.5.9-.3,0-.5,0-.7.2-2.8.9-5.4,2.2-7.5,4-3.8,3.2-6.2,7.6-6.4,12.5v.6h0c0,5.2,2.6,10,6.6,13.3.2.2.5.4.8.6,0,.2.3.4.5.5h.2c2.3,1.6,5,2.9,8,3.5.2,0,.3.1.5.1,1.7.3,3.4.5,5.1.5,5.9,0,11.2-2.1,15.2-5.3,4-3.3,6.6-7.9,6.8-12.9v-.2c0-5-2.2-9.5-6.1-12.9h0ZM88.3,185.5c2.5-4.6,5-9.1,7.5-13.5,2.6-4.5,5.2-9.1,7.9-13.7,2,.4,3.9,1.1,5.6,1.9-2.7,4.4-5.3,8.9-8,13.5s-5.3,9.2-8,14c-1.9-.5-3.6-1.3-5.1-2.3h0ZM80.7,173v-.5c0-4,2.1-7.6,5.2-10.2.8-.7,1.7-1.2,2.6-1.8-1.1,2-2.3,4-3.4,6-1.4,2.5-2.8,5.1-4.3,7.7v-1.3h0ZM82,178.5s.2-.2.2-.3c1.8-3.2,3.6-6.6,5.6-10.1,1.7-3.1,3.5-6.3,5.4-9.5,1.7-.4,3.5-.7,5.4-.7h1.7c-2.4,4.1-4.8,8.3-7.2,12.5-2.5,4.4-4.9,8.8-7.3,13.1-1.6-1.4-2.9-3.1-3.7-5h-.1ZM99.2,188.5c-.9,0-1.7,0-2.6-.2,2.4-4.3,4.9-8.7,7.4-13,2.6-4.4,5.2-8.9,7.9-13.4.4.3.7.5,1.1.8,1.2,1,2.2,2.2,3,3.4,0,0,0,.1-.2.2-2.4,3.9-4.6,7.6-6.7,11.1-2.1,3.6-4.2,7.1-6.2,10.6-1.2.2-2.5.4-3.9.4h.2ZM118.1,173.3c0,4.1-2.3,7.8-5.7,10.6-1.5,1.2-3.1,2.2-5,2.9,1.5-2.6,3-5.2,4.5-7.7,2-3.3,3.8-6.5,5.7-9.5.3,1.1.5,2.3.5,3.5h0v.2Z"/>
  <path class="st0" d="M245,165.4s-.1-.2-.2-.3c-.2-.2-.4-.3-.7-.4-2.4-1.6-5.2-2.9-8.5-3.7-1.2-.3-2.4-.5-3.6-.7-6-.8-11.8.3-16.2,2.6-4.6,2.4-7.8,6.1-8.6,10.7h0c0,.4-.1.7-.1,1-.4,4.1,1.3,7.9,4.4,11,2.3,2.3,5.5,4.1,9.3,5.2.3.2.6.3.9.3.7.2,1.4.3,2.1.5.7.1,1.5.2,2.2.3h0c1.7.1,3.3.1,4.9,0,.5.2,1.1.2,1.6-.1,3.4-.4,6.6-1.4,9.3-2.8,4.5-2.4,7.9-5.9,8.9-10.2h0c.1-.5.2-.9.2-1.3.5-3.7-1-7.3-3.8-10.2-.6-.6-1.3-1.2-2.1-1.8h0ZM221.1,187.7c-1.7-.5-3.3-1.3-4.6-2.1,3.1-3.4,6.3-6.9,9.5-10.4h0c3.2-3.6,6.6-7.2,10.1-10.8,1.9.5,3.5,1.3,5,2.1-3.3,3.4-6.6,6.8-9.9,10.2-3.5,3.6-6.8,7.3-10.2,10.9h0ZM210.2,174.2c.6-3.5,3.2-6.5,7-8.4,1-.5,2.1-1,3.3-1.3-1.5,1.6-2.9,3.1-4.2,4.6-2.1,2.3-4.1,4.6-6.2,6.8v-1.6h0ZM210.9,179.5c.2,0,.4-.2.5-.4,2.4-2.7,4.8-5.4,7.2-8,2.5-2.8,4.9-5.3,7.1-7.7,1.9-.2,3.9-.1,5.9.1.3,0,.6,0,.9.1-2.9,3-5.8,6.1-8.8,9.3h0c-3.2,3.5-6.4,7.1-9.7,10.7l-.3-.3c-1.2-1.2-2.1-2.5-2.7-3.9h0ZM226.2,188.7h0c-.5,0-1.1-.1-1.5-.2,3-3.2,5.9-6.4,8.9-9.6,3.4-3.6,6.8-7.1,10.2-10.6.4.3.7.6,1.1,1,.9.9,1.5,1.8,2,2.8-2.8,2.8-5.5,5.6-8.2,8.4-2.6,2.7-5.2,5.4-7.7,8.1-1.6.1-3.1.2-4.8,0h0ZM247.7,177c0,.3,0,.6-.2.9h0c-.8,3.4-3.5,6.2-7.3,8.2-1.2.6-2.6,1.2-4,1.6,1.6-1.6,3.1-3.3,4.7-4.9,2.3-2.4,4.6-4.7,6.9-7v1.2h0Z"/>
  <path class="st0" d="M176.9,200.7c-.1.2-.3.4-.6.5-1.8,1.5-5.5,2.8-9.3,3.3-3.7.5-7.6.1-9.8-1.7-.3-.2-.5-.5-.7-.7-.6-.7-1.5-.8-2.2-.2s-.8,1.5-.2,2.2c.4.4.7.8,1.2,1.2,3,2.4,7.7,3,12.2,2.4,4.4-.6,8.7-2.2,10.9-4,.4-.3.7-.6,1-1,.5-.7.4-1.7-.2-2.2-.7-.5-1.7-.4-2.2.2h0Z"/>
  <path class="st0" d="M148.1,143.1s-.8,15.2,1.2,28.3c1.9,13.1,7.6,26.8,16.3,29.3s14.3-11.9,17.9-26.9c3.6-14.9,5-30.5,5-30.5,0,0-22,10.9-40.4-.2h0ZM181.9,148.8c.6-.6,1.6-.5,2.2.1.6.6.5,1.6-.1,2.2-2.8,2.5-8.9,4.3-15.2,4.6-5.6.3-11.4-.5-15.2-2.9-.7-.5-1-1.4-.5-2.2.5-.7,1.4-1,2.2-.5,3.2,2,8.4,2.7,13.4,2.5,5.6-.3,10.9-1.8,13.2-3.8h0Z"/>
</svg>