<?xml version="1.0" encoding="UTF-8"?>
<svg id="Layer_1" xmlns="http://www.w3.org/2000/svg" version="1.1" viewBox="0 0 310 350">
  <!-- Generator: Adobe Illustrator 29.5.1, SVG Export Plug-In . SVG Version: 2.1.0 Build 141)  -->
  <defs>
    <style>
      .st0 {
        fill: none;
        stroke: #6fbcb2;
        stroke-linecap: round;
        stroke-linejoin: round;
        stroke-width: 7.7px;
      }
    </style>
  </defs>
  <path class="st0" d="M192.5,242.5c-2.3,16.9-4,33.8-10.9,49.2-4.3,9.6-13.4,19.4-23.4,16.8-6.3-1.7-10.5-7.9-12.1-14.4s-1-13.2-1-19.8c0-17.1-3.4-34.1-10.1-49.8-2.7-6.3-6.7-13.2-13.5-14.7-9.4-2.1-17.3,7.4-21.3,16.4-7.1,15.6-10.5,32.8-9.8,49.9.4,9.7,1.4,21.2-5.7,27.7-7.7,7-20.9,2.9-27.2-5.4s-7.7-19.4-9.2-29.8c-3.8-26.6-9.3-52.9-18.2-78.2-6.6-18.9-15-37.2-20-56.6-4.9-19.4-6.1-40.6,1.6-59,7.7-18.5,26-33.1,45.6-32,20.9,1.2,38,19.9,58.5,21.4,20.1,1.4,36-17.8,55.7-22.1,18.1-3.9,37.3,6.1,47.8,21.6s13.3,35.3,11,54c-.5,4.2-1.2,8.4-2.2,12.7"/>
  <path class="st0" d="M43.4,74.7c-7.2,3.5-11.9,11.4-11.5,19.4"/>
  <path class="st0" d="M32.8,125.2c2.5,16.7,8.6,32.7,17.9,46.7"/>
  <path class="st0" d="M257.4,214.7c.8-1.3,1.5-2.6,2.1-4,11.3-23.4,5-52.4-13.1-69.2-5.3-4.9-11.6-8.7-18.4-11.3-16.3-6.2-35.2-5.5-50.5,3-21.6,11.9-34,38.5-29.4,62.8,4.2,22.2,22.5,41.1,44.3,46.5,2,.5,4,.9,6,1.2,16.3,2.1,33.1-3.3,45.8-13.7"/>
  <path class="st0" d="M212.8,142.8c-17.6-2.3-36,7.7-43.7,23.7-7.6,16-3.7,36.8,9.1,48.9,12.9,12.1,33.7,14.9,49.3,6.3,15.6-8.5,24.5-27.6,21.1-45s-18.9-31.6-35.8-33.9h0Z"/>
  <path class="st0" d="M197.4,159.4c-4.4.6-8.4,3.6-10.2,7.7"/>
  <path class="st0" d="M181.8,182.7c-2.1,7.7,1.4,16.7,8.2,20.9"/>
  <path class="st0" d="M257.4,214.7c13.1,12,26,24,39.1,36,2.5,2.3,5.1,4.8,6.6,7.9,1.4,3.1,1.4,7.2-.9,9.7-2.3,2.4-6.2,2.7-9.3,1.7s-5.8-3.3-8.3-5.5c-13.4-11.5-26.8-23.1-40.2-34.6"/>
</svg>