<?xml version="1.0" encoding="UTF-8"?>
<svg id="Layer_1" xmlns="http://www.w3.org/2000/svg" version="1.1" viewBox="0 0 310 350">
  <!-- Generator: Adobe Illustrator 29.5.1, SVG Export Plug-In . SVG Version: 2.1.0 Build 141)  -->
  <defs>
    <style>
      .st0 {
        fill: none;
        stroke: #6fbcb2;
        stroke-linecap: round;
        stroke-linejoin: round;
        stroke-width: 10.9px;
      }
    </style>
  </defs>
  <g id="Layer_11">
    <g>
      <g>
        <path class="st0" d="M245.1,171.4c13.2-27.7,34.4-87.3,25.8-123.7-12-51.4-63.1-43-81-31.8-.1,0-.3.2-.4.3-21.2,13.1-47.8,13.1-69,0,0,0-.3-.2-.4-.3C102.2,4.8,51.1-3.7,39.1,47.8c-8.5,36.4,12.7,96,25.8,123.7h180.2Z"/>
        <path class="st0" d="M60.9,53.1c3.7-15.7,11.9-22.6,26.7-22.6"/>
      </g>
      <rect class="st0" x="81.1" y="171.4" width="147.8" height="34.7"/>
      <polygon class="st0" points="180.5 308.6 155 342.5 129.5 308.6 116.7 206.1 193.3 206.1 180.5 308.6"/>
      <line class="st0" x1="109" y1="231.8" x2="201" y2="231.8"/>
      <line class="st0" x1="112.1" y1="260.6" x2="197.9" y2="260.6"/>
      <line class="st0" x1="115.2" y1="289.3" x2="194.8" y2="289.3"/>
    </g>
  </g>
</svg>