<?xml version="1.0" encoding="UTF-8"?>
<svg id="Layer_1" xmlns="http://www.w3.org/2000/svg" version="1.1" viewBox="0 0 310 350">
  <!-- Generator: Adobe Illustrator 29.5.1, SVG Export Plug-In . SVG Version: 2.1.0 Build 141)  -->
  <defs>
    <style>
      .st0 {
        fill: none;
        stroke: #6fbcb2;
        stroke-linecap: round;
        stroke-linejoin: round;
        stroke-width: 5.2px;
      }
    </style>
  </defs>
  <path class="st0" d="M306,150.7c-33.2-29.9-76.9-47.9-121.5-50.3-2.1,0-4.2.6-5.9,1.9-7,5.6-15.2,8.3-23.5,8.2-8.1,0-16.2-3-22.2-7.4-1.7-1.2-3.6-1.8-5.7-1.8-46,1-91.4,19.6-123.3,51.2,17.6,38.5,50.5,69.7,89.8,85.3s84.7,15.5,123.9-.4c39.2-15.9,71.9-47.3,88.4-86.8h0Z"/>
  <path class="st0" d="M306,150.7c-3.9,3.9-8.7,8.1-25.8,3.9-11.5-2.8-32.2-9.3-44-10.3-38.1-3.1-43.7,6.3-78.2,6.3"/>
  <path class="st0" d="M4,152.6c3.6,2.3,10.4,7.2,31.8,2,11.5-2.8,32.2-9.3,44-10.3,38.1-3.1,43.7,6.3,78.2,6.3"/>
  <path class="st0" d="M156.9,150.6c.1,8-.6,23.9-.6,26.3h0c5.5,2,11.1,3.7,17,3.8,1.3,0,2.7,0,4-.2,4.4-.6,8.6-2.4,11.6-5.5l.3-.3c.5-9.1.8-18.2.6-27.3"/>
  <path class="st0" d="M221.4,143.7c.6,9.1.4,18.2-.6,27.3-.9,2.3-3.4,3.5-5.8,4.3-4.4,1.5-9.1,2.2-13.8,2.1-4.2,0-8.4-.9-12.3-2.3h0"/>
  <path class="st0" d="M248.8,146.5c-.3,6.3-.9,12.5-1.8,18.7-.7,1-1.5,1.8-2.4,2.6-2.7,2.1-6.1,3.3-9.6,3.8-3.3.4-6.7.2-10.1-.2-1.3-.1-2.6-.3-3.9-.5"/>
  <path class="st0" d="M268.4,151.5v1.7c-.1,2.1-.3,4.3-1.1,6.3-.7,1.7-1.9,3.2-3.5,4.3-1.5,1.2-3.4,2-5.3,2.4-3.7.8-7.6.3-11.3-.5"/>
  <path class="st0" d="M156.6,203.3h0c-.2-7.5-.3-22.6-.6-26.2v-.5"/>
  <path class="st0" d="M177.3,180.5c1,7.2,1.2,14.6.7,21.8"/>
  <path class="st0" d="M201.2,177.3c.8,7.4.5,14.8-.8,22.1"/>
  <path class="st0" d="M224.9,171.3c1.2,7.5,1.3,15.1.3,22.6"/>
  <path class="st0" d="M244.6,167.7c.9,6.6.9,13.3-.1,19.9"/>
  <path class="st0" d="M263.7,163.7c1,4.8,1.1,9.8.2,14.6h0"/>
  <path class="st0" d="M292.6,156.4c-8.4,8.7-18.1,16-28.7,22-6.3,3.5-12.8,6.6-19.5,9.2-4.5,1.8-9.1,3.3-13.7,4.7-1.9.6-3.7,1.1-5.6,1.6-8.2,2.3-16.4,4.1-24.8,5.6-7.4,1.3-14.8,2.3-22.4,2.9-7.1.6-14.2.9-21.4,1h-1.7"/>
  <path class="st0" d="M123.1,146.9c0,9.3,0,18.6.6,27.9l.3.3c3,3.1,7.2,4.9,11.6,5.5,1.3.2,2.6.3,4,.2,5.6,0,11.1-1.8,16.4-3.6h.4c0-.2.1-.2.2-.2"/>
  <path class="st0" d="M91.5,143.7c-.6,9.1-.4,18.1.7,27.1.9,2.3,3.4,3.5,5.8,4.3,4.4,1.5,9.1,2.2,13.8,2.1,4.2,0,8.4-.9,12.3-2.3h0"/>
  <path class="st0" d="M64.1,147.2c.3,6,.9,12,1.8,17.9.7,1,1.5,1.8,2.4,2.5,2.7,2.2,6.1,3.3,9.6,3.8,3.3.4,6.7.2,10.1-.2,1.3-.1,2.6-.3,3.9-.5"/>
  <path class="st0" d="M44.6,152.3v.8c0,2.1.2,4.3,1.1,6.3.7,1.7,2,3.2,3.5,4.3,1.6,1.2,3.4,2,5.3,2.4,3.7.8,7.6.3,11.3-.5"/>
  <path class="st0" d="M134.9,202.3c-.5-7.3-.3-14.6.7-21.8"/>
  <path class="st0" d="M112.5,199.4c-1.3-7.3-1.6-14.8-.8-22.1"/>
  <path class="st0" d="M87.7,193.8c-1-7.5-.9-15.1.3-22.6"/>
  <path class="st0" d="M68.5,187.5c-1-6.6-1-13.3,0-19.9"/>
  <path class="st0" d="M49,178.3c-.9-4.8-.8-9.8.2-14.6"/>
  <path class="st0" d="M20.9,156.9c8.2,8.5,17.8,15.5,28.1,21.3,6.3,3.5,12.8,6.6,19.5,9.2,4.5,1.8,9.1,3.3,13.7,4.7,1.8.6,3.7,1.1,5.6,1.6,8.2,2.3,16.5,4.1,24.8,5.6,7.4,1.3,14.9,2.3,22.4,2.9,7.2.6,14.4,1,21.7,1h1.4"/>
</svg>